# xmcd
#
# Track frame offsets: 
#        150
#        13561
#        27648
#        42676
#        60946
#        72435
#        83658
#        96539
#        110648
#        125648
#        136380
#        150788
#        163737
#
# Disc length: 2414 seconds
#
# Revision: 2
# Processed by: cddbd v1.5.2PL0 Copyright (c) Steve Scherf et al.
# Submitted via: ExactAudioCopy v0.99pb5
#
DISCID=b0096c0d
DTITLE=Various Artist - So schön kann nur Volksmusik sein! CD 2
DYEAR=2005
DGENRE=Volksmusik
TTITLE0=Feldberger - Edeltraud
TTITLE1=Maria Hellwig and Heinz Schenk - Auch der Herbst hat noch viele 
TTITLE1=schöne Tage
TTITLE2=Fahrende Musikanten - Du darfst die Hoffnung nie verlieren
TTITLE3=Trenkwalder - Durchs Rauchntal
TTITLE4=Karl Moik - Musi-Musikantenstadl
TTITLE5=Astrid Harzbecker - Halt mich tief im Herzen fest
TTITLE6=Remo Frankello - Mama ist die Beste
TTITLE7=Heintje Simons - Die schönsten Mädchen
TTITLE8=Steffi and Bert - Stell doch Dein Herz auf Sommerzeit
TTITLE9=Orchester Erich Brecht - So schön ist Volksmusik
TTITLE10=Die Stoakogler - Gott sei Dank seid's alle da
TTITLE11=Duo Treibsand - Engel meiner Träume
TTITLE12=Original Naabtal Duo - Adios Amigos, Adios
EXTD=
EXTT0=
EXTT1=
EXTT2=
EXTT3=
EXTT4=
EXTT5=
EXTT6=
EXTT7=
EXTT8=
EXTT9=
EXTT10=
EXTT11=
EXTT12=
PLAYORDER=
